<svg xmlns="http://www.w3.org/2000/svg" style="display: none;">
    <symbol id="facebook" viewBox="0 0 24 24">
        <path d="M22 12c0-5.523-4.477-10-10-10S2 6.477 2 12c0 4.991 3.657 9.128 8.438 9.879v-6.991h-2.54v-2.888h2.54v-2.199c0-2.507 1.492-3.889 3.775-3.889 1.094 0 2.238.195 2.238.195v2.459h-1.26c-1.242 0-1.63.771-1.63 1.562v1.872h2.773l-.443 2.888h-2.33v6.991C18.343 21.128 22 16.991 22 12z"/>
    </symbol>
    <symbol id="twitter" viewBox="0 0 24 24">
        <path d="M23.954 4.569c-.885.389-1.83.654-2.825.775 1.014-.611 1.794-1.574 2.163-2.723-.949.555-2.005.959-3.127 1.184-.897-.959-2.173-1.56-3.591-1.56-2.717 0-4.92 2.206-4.92 4.917 0 .39.045.765.127 1.124-4.087-.205-7.715-2.165-10.148-5.144-.422.722-.664 1.561-.664 2.457 0 1.698.87 3.197 2.188 4.075-.807-.026-1.566-.248-2.228-.616v.061c0 2.373 1.693 4.348 3.946 4.797-.413.111-.849.171-1.296.171-.318 0-.626-.03-.927-.086.627 1.956 2.445 3.379 4.6 3.42-1.68 1.319-3.809 2.105-6.115 2.105-.398 0-.79-.023-1.17-.067 2.179 1.398 4.768 2.212 7.557 2.212 9.054 0 14-7.496 14-13.986 0-.21 0-.423-.015-.635.961-.694 1.8-1.56 2.46-2.548l-.047-.02z"/>
    </symbol>
    <symbol id="instagram" viewBox="0 0 24 24">
        <path d="M12 2.163c3.204 0 3.584.012 4.85.07 1.366.062 2.633.334 3.608 1.309.975.975 1.247 2.242 1.309 3.608.058 1.266.07 1.646.07 4.85s-.012 3.584-.07 4.85c-.062 1.366-.334 2.633-1.309 3.608-.975.975-2.242 1.247-3.608 1.309-1.266.058-1.646.07-4.85.07s-3.584-.012-4.85-.07c-1.366-.062-2.633-.334-3.608-1.309-.975-.975-1.247-2.242-1.309-3.608-.058-1.266-.07-1.646-.07-4.85s.012-3.584.07-4.85c.062-1.366.334-2.633 1.309-3.608C5.517 2.497 6.784 2.225 8.15 2.163c1.266-.058 1.646-.07 4.85-.07M12 0C8.741 0 8.332.012 7.053.07 5.775.128 4.49.444 3.364 1.57 2.239 2.695 1.922 3.98 1.864 5.258.806 6.537.794 6.946.794 12s.012 5.463.07 6.742c.058 1.278.375 2.563 1.5 3.689 1.125 1.125 2.41 1.442 3.688 1.5 1.278.058 1.687.07 6.742.07s5.463-.012 6.742-.07c1.278-.058 2.563-.375 3.689-1.5 1.125-1.125 1.442-2.41 1.5-3.688.058-1.278.07-1.687.07-6.742s-.012-5.463-.07-6.742c-.058-1.278-.375-2.563-1.5-3.689-1.125-1.125-2.41-1.442-3.688-1.5C17.463.012 17.053 0 12 0zm0 5.838a6.163 6.163 0 100 12.327 6.163 6.163 0 100-12.327zm0 10.165a4.002 4.002 0 110-8.004 4.002 4.002 0 010 8.004zm6.406-11.845a1.44 1.44 0 11-2.88 0 1.44 1.44 0 012.88 0z"/>
    </symbol>
    <symbol id="linkedin" viewBox="0 0 24 24">
        <path d="M20.451 20.451h-3.735V15.01c0-1.298-.024-2.97-1.811-2.97-1.811 0-2.09 1.417-2.09 2.882v5.529h-3.734V9h3.584v1.561h.05c.5-.949 1.723-1.951 3.547-1.951 3.796 0 4.493 2.5 4.493 5.754v6.087zM5.337 7.433c-1.2 0-2.172-.973-2.172-2.172C3.165 4.063 4.137 3.09 5.337 3.09c1.2 0 2.172.973 2.172 2.172 0 1.199-.972 2.172-2.172 2.172zM7.205 20.451H3.469V9h3.736v11.451zM22.225 0H1.771C.792 0 .01.774.01 1.729v20.542c0 .955.782 1.729 1.761 1.729h20.452c.979 0 1.771-.774 1.771-1.729V1.729C23.996.774 23.204 0 22.225 0z"/>
    </symbol>
</svg>
